<?xml version="1.0" encoding="UTF-8"?>
<svg xmlns="http://www.w3.org/2000/svg" viewBox="0 0 200 150" width="200" height="150" role="img" aria-label="Lontra — Baru">
  <title>Lontra — Baru</title>
  <g transform="translate(100.0,85.0)">

    <!-- cauda -->
    <path d="M 26.00 34.00 C 58.00 40.00, 74.00 24.00, 78.00 6.00 C 70.00 12.00, 58.00 30.00, 26.00 50.00 Z" fill="#573d2b"/>
    <!-- patinhas -->
    <path d="M -20.00 43.50 C -15.58 43.50, -12.00 46.41, -12.00 50.00 C -12.00 52.94, -16.38 55.33, -20.00 55.33 C -23.62 55.33, -28.00 52.94, -28.00 50.00 C -28.00 46.41, -24.42 43.50, -20.00 43.50 Z" fill="#5e422e"/>
    <path d="M 20.00 43.50 C 24.42 43.50, 28.00 46.41, 28.00 50.00 C 28.00 52.94, 23.62 55.33, 20.00 55.33 C 16.38 55.33, 12.00 52.94, 12.00 50.00 C 12.00 46.41, 15.58 43.50, 20.00 43.50 Z" fill="#5e422e"/>
    <!-- corpo -->
    <path d="M 0.00 -15.44 C 22.64 -15.44, 41.00 -2.99, 41.00 18.00 C 41.00 38.99, 22.64 56.00, 0.00 56.00 C -22.64 56.00, -41.00 38.99, -41.00 18.00 C -41.00 -2.99, -22.64 -15.44, 0.00 -15.44 Z" fill="#6c4a32"/>
    <clipPath id="lontra-corpo"><path d="M 0.00 -15.44 C 22.64 -15.44, 41.00 -2.99, 41.00 18.00 C 41.00 38.99, 22.64 56.00, 0.00 56.00 C -22.64 56.00, -41.00 38.99, -41.00 18.00 C -41.00 -2.99, -22.64 -15.44, 0.00 -15.44 Z"/></clipPath>
    <g clip-path="url(#lontra-corpo)">
      <path d="M 0.00 3.90 C 15.46 3.90, 28.00 13.98, 28.00 30.00 C 28.00 46.02, 15.46 59.00, 0.00 59.00 C -15.46 59.00, -28.00 46.02, -28.00 30.00 C -28.00 13.98, -15.46 3.90, 0.00 3.90 Z" fill="#917560"/>
    </g>
    <!-- cabeça -->
    <g transform="translate(0,-28)">
      <path d="M -40.77 -22.10 Q -36.33 -37.60 -25.23 -25.90 Q -29.67 -10.40 -40.77 -22.10 Z" fill="#5e422e"/>
    <path d="M -37.04 -23.01 Q -34.73 -31.07 -28.96 -24.99 Q -31.27 -16.93 -37.04 -23.01 Z" fill="#8a5a3a"/>
      <path d="M 25.23 -25.90 Q 36.33 -37.60 40.77 -22.10 Q 29.67 -10.40 25.23 -25.90 Z" fill="#5e422e"/>
    <path d="M 28.96 -24.99 Q 34.73 -31.07 37.04 -23.01 Q 31.27 -16.93 28.96 -24.99 Z" fill="#8a5a3a"/>
      <path d="M 0.00 -37.00 C 23.20 -37.00, 42.00 -20.44, 42.00 0.00 C 42.00 20.84, 23.66 37.74, 0.00 37.74 C -23.66 37.74, -42.00 20.84, -42.00 0.00 C -42.00 -20.44, -23.20 -37.00, 0.00 -37.00 Z" fill="#6c4a32"/>
      <path d="M 0.00 -1.30 C 13.81 -1.30, 25.00 4.61, 25.00 14.00 C 25.00 23.39, 13.81 31.00, 0.00 31.00 C -13.81 31.00, -25.00 23.39, -25.00 14.00 C -25.00 4.61, -13.81 -1.30, 0.00 -1.30 Z" fill="#967c67"/>
      <path d="M -22.00 8.50 C -29.00 7.50, -35.00 6.50, -41.00 5.50" fill="none" stroke="#573d2b" stroke-width="1.2" stroke-linecap="round"/>
    <path d="M -22.00 12.00 C -29.00 11.00, -35.00 10.00, -41.00 9.00" fill="none" stroke="#573d2b" stroke-width="1.2" stroke-linecap="round"/>
    <path d="M -22.00 15.50 C -29.00 14.50, -35.00 13.50, -41.00 12.50" fill="none" stroke="#573d2b" stroke-width="1.2" stroke-linecap="round"/>
      <path d="M 22.00 8.50 C 29.00 7.50, 35.00 6.50, 41.00 5.50" fill="none" stroke="#573d2b" stroke-width="1.2" stroke-linecap="round"/>
    <path d="M 22.00 12.00 C 29.00 11.00, 35.00 10.00, 41.00 9.00" fill="none" stroke="#573d2b" stroke-width="1.2" stroke-linecap="round"/>
    <path d="M 22.00 15.50 C 29.00 14.50, 35.00 13.50, 41.00 12.50" fill="none" stroke="#573d2b" stroke-width="1.2" stroke-linecap="round"/>
      <path d="M 0.00 -0.50 C 5.25 -0.50, 9.50 2.41, 9.50 6.00 C 9.50 9.95, 5.77 13.15, 0.00 13.15 C -5.77 13.15, -9.50 9.95, -9.50 6.00 C -9.50 2.41, -5.25 -0.50, 0.00 -0.50 Z" fill="#573d2b"/>
      <ellipse cx="-3.5" cy="3" rx="3" ry="1.75" fill="#988070" opacity="0.45"/>
      <line x1="-6" y1="19" x2="6" y2="19" stroke="#573d2b" stroke-width="1.9" stroke-linecap="round"/>
      <circle cx="-21.00" cy="-12.00" r="7.50" fill="#FAF1E3"/>
    <circle cx="-21.00" cy="-12.00" r="3.75" fill="#3E2F23"/>
    <circle cx="-23.25" cy="-14.40" r="1.50" fill="#ffffff"/>
    <circle cx="-19.50" cy="-10.80" r="0.75" fill="#ffffff" opacity="0.7"/>
      <circle cx="21.00" cy="-12.00" r="7.50" fill="#FAF1E3"/>
    <circle cx="21.00" cy="-12.00" r="3.75" fill="#3E2F23"/>
    <circle cx="18.75" cy="-14.40" r="1.50" fill="#ffffff"/>
    <circle cx="22.50" cy="-10.80" r="0.75" fill="#ffffff" opacity="0.7"/>
    </g>
  </g>
</svg>
